<?xml version="1.0" encoding="UTF-8"?>
<!DOCTYPE svg PUBLIC "-//W3C//DTD SVG 1.1//EN" "http://www.w3.org/Graphics/SVG/1.1/DTD/svg11.dtd">
<svg xmlns="http://www.w3.org/2000/svg" version="1.1" width="1000px" height="600px" style="shape-rendering:geometricPrecision; text-rendering:geometricPrecision; image-rendering:optimizeQuality; fill-rule:evenodd; clip-rule:evenodd" xmlns:xlink="http://www.w3.org/1999/xlink">
<g><path style="opacity:0.987" fill="#fefffe" d="M 487.5,39.5 C 531.951,38.0894 574.117,47.0894 614,66.5C 627.748,112.439 629.082,158.773 618,205.5C 617.125,208.628 615.958,211.628 614.5,214.5C 562.955,164.951 503.621,152.785 436.5,178C 372.791,209.55 341.291,261.05 342,332.5C 348.373,395.787 380.206,440.954 437.5,468C 499.632,491.256 555.965,481.59 606.5,439C 647.913,397.928 664.246,348.428 655.5,290.5C 689.35,258.495 713.35,220.162 727.5,175.5C 760.718,238.251 767.885,303.918 749,372.5C 716.256,471.911 648.756,532.744 546.5,555C 452.022,569.286 371.856,542.12 306,473.5C 244.971,401.031 226.304,318.697 250,226.5C 281.268,131.232 345.435,71.0651 442.5,46C 457.498,42.7644 472.498,40.5978 487.5,39.5 Z"/></g>
</svg>
